# xmcd CD database file
#
# Track frame offsets:
#	150
#	19878
#	46898
#	72351
#	90082
#	111080
#	132000
#	137408
#	162129
#	199779
#	208882
#	235395
#	275562
#
# Disc length: 3987 seconds
#
# Revision: 0
# Processed by: cddbd v1.5.2PL0 Copyright (c) Steve Scherf et al.
# Submitted via: CDex 1.70beta2
#
DISCID=b10f910d
DTITLE=Tord Gustavsen Trio - Changing Places
DYEAR=2003
DGENRE=Jazz
TTITLE0=Deep As Love
TTITLE1=Graceful Touch
TTITLE2=IGN
TTITLE3=Melted Matter
TTITLE4=At A Glance
TTITLE5=Song Of Yearning
TTITLE6=Turning Point
TTITLE7=Interlude
TTITLE8=Where Breathing Starts
TTITLE9=Going Places
TTITLE10=Your Eyes
TTITLE11=Graceful Touch - Variation
TTITLE12=Song Of Yearning (Solo)
EXTD=YEAR: 2003
EXTT0=
EXTT1=
EXTT2=
EXTT3=
EXTT4=
EXTT5=
EXTT6=
EXTT7=
EXTT8=
EXTT9=
EXTT10=
EXTT11=
EXTT12=
PLAYORDER=
